HIERARCHY
ROOT Hips
{
	OFFSET 0.000000 100.481300 0.000000
	CHANNELS 6 Xposition Yposition Zposition Xrotation Yrotation Zrotation
	JOINT Spine
	{
		OFFSET -0.279200 12.230698 -2.892100
		CHANNELS 3 Xrotation Yrotation Zrotation
		JOINT Spine1
		{
			OFFSET -0.325700 14.269203 -3.374200
			CHANNELS 3 Xrotation Yrotation Zrotation
			JOINT Spine2
			{
				OFFSET -0.372300 16.307602 -0.352600
				CHANNELS 3 Xrotation Yrotation Zrotation
				JOINT Neck
				{
					OFFSET -0.418800 17.814194 8.416900
					CHANNELS 3 Xrotation Yrotation Zrotation
					JOINT Head
					{
						OFFSET 0.000000 7.031097 3.806800
						CHANNELS 3 Xrotation Yrotation Zrotation
						JOINT HeadTop_End
						{
							OFFSET 0.000000 24.646606 12.978600
							CHANNELS 3 Xrotation Yrotation Zrotation
							End Site
							{
								OFFSET 0.000000 27.854965 0.000000
							}
						}
					}
				}
				JOINT LeftShoulder
				{
					OFFSET 16.952999 14.495407 -7.737500
					CHANNELS 3 Xrotation Yrotation Zrotation
					JOINT LeftArm
					{
						OFFSET 9.308998 -2.777710 0.208600
						CHANNELS 3 Xrotation Yrotation Zrotation
						JOINT LeftForeArm
						{
							OFFSET 29.972298 0.000000 0.000000
							CHANNELS 3 Xrotation Yrotation Zrotation
							JOINT LeftHand
							{
								OFFSET 26.026505 0.000000 0.000000
								CHANNELS 3 Xrotation Yrotation Zrotation
								JOINT LeftHandThumb1
								{
									OFFSET 12.240501 -7.147949 9.207150
									CHANNELS 3 Xrotation Yrotation Zrotation
									JOINT LeftHandThumb2
									{
										OFFSET 4.138618 -2.389435 2.389433
										CHANNELS 3 Xrotation Yrotation Zrotation
										JOINT LeftHandThumb3
										{
											OFFSET 2.726913 -1.574387 1.574386
											CHANNELS 3 Xrotation Yrotation Zrotation
											JOINT LeftHandThumb4
											{
												OFFSET 3.941010 -2.275345 2.275342
												CHANNELS 3 Xrotation Yrotation Zrotation
												End Site
												{
													OFFSET -0.005798 5.087799 0.009903
												}
											}
										}
									}
								}
								JOINT LeftHandIndex1
								{
									OFFSET 24.424698 -1.985611 5.953459
									CHANNELS 3 Xrotation Yrotation Zrotation
									JOINT LeftHandIndex2
									{
										OFFSET 6.426697 0.000000 0.000000
										CHANNELS 3 Xrotation Yrotation Zrotation
										JOINT LeftHandIndex3
										{
											OFFSET 5.337898 0.000000 0.000000
											CHANNELS 3 Xrotation Yrotation Zrotation
											JOINT LeftHandIndex4
											{
												OFFSET 4.409401 0.000000 0.000000
												CHANNELS 3 Xrotation Yrotation Zrotation
												End Site
												{
													OFFSET 0.000000 4.409363 0.014373
												}
											}
										}
									}
								}
								JOINT LeftHandMiddle1
								{
									OFFSET 23.810104 0.000000 0.000000
									CHANNELS 3 Xrotation Yrotation Zrotation
									JOINT LeftHandMiddle2
									{
										OFFSET 7.176498 0.000000 0.000000
										CHANNELS 3 Xrotation Yrotation Zrotation
										JOINT LeftHandMiddle3
										{
											OFFSET 6.774902 0.000000 0.000000
											CHANNELS 3 Xrotation Yrotation Zrotation
											JOINT LeftHandMiddle4
											{
												OFFSET 5.403328 0.000000 0.000000
												CHANNELS 3 Xrotation Yrotation Zrotation
												End Site
												{
													OFFSET -0.027702 5.403244 0.017414
												}
											}
										}
									}
								}
								JOINT LeftHandRing1
								{
									OFFSET 22.908401 -0.839279 -6.020567
									CHANNELS 3 Xrotation Yrotation Zrotation
									JOINT LeftHandRing2
									{
										OFFSET 6.337502 0.000000 0.000000
										CHANNELS 3 Xrotation Yrotation Zrotation
										JOINT LeftHandRing3
										{
											OFFSET 5.779297 0.000000 0.000000
											CHANNELS 3 Xrotation Yrotation Zrotation
											JOINT LeftHandRing4
											{
												OFFSET 4.965698 0.000000 0.000000
												CHANNELS 3 Xrotation Yrotation Zrotation
												End Site
												{
													OFFSET 0.000000 4.965668 0.016186
												}
											}
										}
									}
								}
								JOINT LeftHandPinky1
								{
									OFFSET 20.037003 -1.530319 -10.950146
									CHANNELS 3 Xrotation Yrotation Zrotation
									JOINT LeftHandPinky2
									{
										OFFSET 5.254700 0.000000 0.000000
										CHANNELS 3 Xrotation Yrotation Zrotation
										JOINT LeftHandPinky3
										{
											OFFSET 4.810204 0.000000 0.000000
											CHANNELS 3 Xrotation Yrotation Zrotation
											JOINT LeftHandPinky4
											{
												OFFSET 3.647202 0.000000 0.000000
												CHANNELS 3 Xrotation Yrotation Zrotation
												End Site
												{
													OFFSET 0.000000 3.647186 0.011889
												}
											}
										}
									}
								}
							}
						}
					}
				}
				JOINT RightShoulder
				{
					OFFSET -15.141001 14.495407 -7.737500
					CHANNELS 3 Xrotation Yrotation Zrotation
					JOINT RightArm
					{
						OFFSET -9.308998 -2.777710 0.208500
						CHANNELS 3 Xrotation Yrotation Zrotation
						JOINT RightForeArm
						{
							OFFSET -29.972300 0.000000 0.000000
							CHANNELS 3 Xrotation Yrotation Zrotation
							JOINT RightHand
							{
								OFFSET -26.026505 0.000000 0.000000
								CHANNELS 3 Xrotation Yrotation Zrotation
								JOINT RightHandThumb1
								{
									OFFSET -12.240601 -7.148026 9.207092
									CHANNELS 3 Xrotation Yrotation Zrotation
									JOINT RightHandThumb2
									{
										OFFSET -4.138618 -2.389435 2.389433
										CHANNELS 3 Xrotation Yrotation Zrotation
										JOINT RightHandThumb3
										{
											OFFSET -2.726974 -1.574417 1.574421
											CHANNELS 3 Xrotation Yrotation Zrotation
											JOINT RightHandThumb4
											{
												OFFSET -3.941010 -2.275345 2.275343
												CHANNELS 3 Xrotation Yrotation Zrotation
												End Site
												{
													OFFSET 0.005814 5.087799 0.009927
												}
											}
										}
									}
								}
								JOINT RightHandIndex1
								{
									OFFSET -24.424698 -1.985657 5.953444
									CHANNELS 3 Xrotation Yrotation Zrotation
									JOINT RightHandIndex2
									{
										OFFSET -6.426697 0.000000 0.000000
										CHANNELS 3 Xrotation Yrotation Zrotation
										JOINT RightHandIndex3
										{
											OFFSET -5.337898 0.000000 0.000000
											CHANNELS 3 Xrotation Yrotation Zrotation
											JOINT RightHandIndex4
											{
												OFFSET -4.409401 0.000000 0.000000
												CHANNELS 3 Xrotation Yrotation Zrotation
												End Site
												{
													OFFSET 0.000000 4.409363 0.014408
												}
											}
										}
									}
								}
								JOINT RightHandMiddle1
								{
									OFFSET -23.810097 0.000000 0.000000
									CHANNELS 3 Xrotation Yrotation Zrotation
									JOINT RightHandMiddle2
									{
										OFFSET -7.176498 0.000000 0.000000
										CHANNELS 3 Xrotation Yrotation Zrotation
										JOINT RightHandMiddle3
										{
											OFFSET -6.774902 0.000000 0.000000
											CHANNELS 3 Xrotation Yrotation Zrotation
											JOINT RightHandMiddle4
											{
												OFFSET -5.403328 0.000000 0.000000
												CHANNELS 3 Xrotation Yrotation Zrotation
												End Site
												{
													OFFSET 0.027702 5.403244 0.017457
												}
											}
										}
									}
								}
								JOINT RightHandRing1
								{
									OFFSET -22.908302 -0.839325 -6.020576
									CHANNELS 3 Xrotation Yrotation Zrotation
									JOINT RightHandRing2
									{
										OFFSET -6.337502 0.000000 0.000000
										CHANNELS 3 Xrotation Yrotation Zrotation
										JOINT RightHandRing3
										{
											OFFSET -5.779297 0.000000 0.000000
											CHANNELS 3 Xrotation Yrotation Zrotation
											JOINT RightHandRing4
											{
												OFFSET -4.965698 0.000000 0.000000
												CHANNELS 3 Xrotation Yrotation Zrotation
												End Site
												{
													OFFSET 0.000000 4.965668 0.016226
												}
											}
										}
									}
								}
								JOINT RightHandPinky1
								{
									OFFSET -20.037003 -1.530334 -10.950259
									CHANNELS 3 Xrotation Yrotation Zrotation
									JOINT RightHandPinky2
									{
										OFFSET -5.254700 0.000000 0.000000
										CHANNELS 3 Xrotation Yrotation Zrotation
										JOINT RightHandPinky3
										{
											OFFSET -4.810204 0.000000 0.000000
											CHANNELS 3 Xrotation Yrotation Zrotation
											JOINT RightHandPinky4
											{
												OFFSET -3.647202 0.000000 0.000000
												CHANNELS 3 Xrotation Yrotation Zrotation
												End Site
												{
													OFFSET 0.000000 3.647186 0.011917
												}
											}
										}
									}
								}
							}
						}
					}
				}
			}
		}
	}
	JOINT LeftUpLeg
	{
		OFFSET 15.427100 -6.655098 0.678600
		CHANNELS 3 Xrotation Yrotation Zrotation
		JOINT LeftLeg
		{
			OFFSET 4.081073 -39.591068 13.024000
			CHANNELS 3 Xrotation Yrotation Zrotation
			JOINT LeftFoot
			{
				OFFSET -4.081074 -37.707932 -15.979700
				CHANNELS 3 Xrotation Yrotation Zrotation
				JOINT LeftToeBase
				{
					OFFSET 5.346399 -15.068900 20.645000
					CHANNELS 3 Xrotation Yrotation Zrotation
					JOINT LeftToe_End
					{
						OFFSET 2.754700 0.931300 11.300900
						CHANNELS 3 Xrotation Yrotation Zrotation
						End Site
						{
							OFFSET 0.000000 11.669021 0.000000
						}
					}
				}
			}
		}
	}
	JOINT RightUpLeg
	{
		OFFSET -15.569500 -6.655098 0.678600
		CHANNELS 3 Xrotation Yrotation Zrotation
		JOINT RightLeg
		{
			OFFSET -4.081825 -39.591045 13.023800
			CHANNELS 3 Xrotation Yrotation Zrotation
			JOINT RightFoot
			{
				OFFSET 4.081824 -37.707954 -15.979600
				CHANNELS 3 Xrotation Yrotation Zrotation
				JOINT RightToeBase
				{
					OFFSET -5.346400 -15.068900 20.645000
					CHANNELS 3 Xrotation Yrotation Zrotation
					JOINT RightToe_End
					{
						OFFSET -2.754700 0.931300 11.300900
						CHANNELS 3 Xrotation Yrotation Zrotation
						End Site
						{
							OFFSET 0.000000 11.669021 0.000000
						}
					}
				}
			}
		}
	}
}
MOTION
Frames: 4
Frame Time: 0.033333
-1.227048 245.499786 10.542274 -21.121446 -32.341195 3.221429 14.776821 -0.379874 -4.108907 29.514531 -1.721854 -6.705814 29.514518 -1.721854 -6.705820 1.865598 4.451089 -6.518794 2.113193 7.328637 1.554788 0.000004 0.000000 0.000000 -4.113458 1.671402 0.666198 -27.705790 8.108630 5.973671 -11.421891 -18.011697 -9.829119 -3.601891 -16.375590 34.301705 9.150964 4.793054 -5.501484 -0.312314 0.082970 0.791370 0.000007 0.000001 0.000000 0.000001 0.000002 -0.000002 -0.901921 -6.980995 -3.808460 0.033469 0.804207 -16.419189 0.000001 -0.000002 0.000000 -0.000000 0.000002 -0.000000 1.947827 9.683051 -14.539970 -0.456507 -1.565411 -21.881329 0.000001 0.000004 -0.000002 -0.000000 0.000001 0.000000 2.605812 14.896847 -31.345483 -0.576919 -2.712272 -32.011881 0.000001 -0.000005 -0.000003 -0.000001 0.000001 -0.000001 4.170542 18.495080 -34.987606 -0.706837 -5.788526 -39.373244 -0.000003 -0.000003 0.000001 0.000001 0.000000 -0.000002 -5.378304 -12.971022 -1.368805 -23.271050 -14.249982 -1.670388 -4.396310 27.833123 3.351020 1.715191 5.883101 -37.145489 -8.895818 -4.903088 -0.383542 7.904895 -19.192466 -2.856705 0.000007 -0.000004 0.000010 -0.000003 0.000001 -0.000003 -1.085510 -1.215506 4.525187 0.142091 -1.115664 16.942498 0.000001 -0.000001 0.000002 -0.000001 0.000001 -0.000000 -0.663650 -2.903944 12.731473 -0.660591 1.813273 30.578747 -0.000005 0.000003 -0.000001 0.000000 -0.000002 0.000002 2.423605 -7.404609 21.763163 -0.989736 3.764119 37.430902 -0.000003 -0.000002 0.000001 -0.000001 -0.000000 0.000001 3.481008 -10.055121 24.322596 -1.458362 7.871819 41.091699 -0.000001 0.000001 0.000001 -0.000001 0.000000 -0.000000 -77.683594 -7.963503 25.276355 118.522825 -9.416808 -4.573506 11.252232 -0.934750 -18.033267 -1.476133 -0.000009 -0.000006 0.000000 0.000001 0.000000 -78.408659 -16.941663 -17.425617 127.534727 1.031334 -6.651041 32.599291 4.567767 22.610414 2.803044 0.000007 0.000009 -0.000001 0.000002 -0.000000 
-1.503891 247.528259 17.904686 -17.051668 -31.022128 4.633044 13.981867 -0.486190 -4.034906 27.931541 -1.790273 -6.238199 27.931546 -1.790291 -6.238189 1.469463 4.504829 -6.485372 2.652298 6.730192 1.715109 0.000004 -0.000001 -0.000000 -3.522545 -0.032177 -0.949584 -27.145301 8.891989 6.503737 -11.465466 -18.641294 -10.049417 -5.913152 -13.544966 33.283543 9.160370 4.808679 -5.499655 -0.329260 0.045831 0.785646 0.000005 -0.000005 0.000000 0.000000 -0.000005 -0.000002 -0.901928 -6.981016 -3.808481 0.033467 0.804216 -16.419150 -0.000000 -0.000003 0.000001 -0.000001 0.000000 0.000000 1.947817 9.683030 -14.539982 -0.456513 -1.565427 -21.881314 -0.000001 0.000003 -0.000002 -0.000000 -0.000002 -0.000001 2.605807 14.896839 -31.345493 -0.576922 -2.712316 -32.011881 0.000004 -0.000006 -0.000002 0.000000 0.000003 0.000002 4.170519 18.495065 -34.987606 -0.706828 -5.788539 -39.373271 -0.000000 -0.000001 0.000001 0.000001 -0.000001 -0.000002 -5.338103 -12.269996 -2.002733 -23.887835 -11.975745 3.061170 -4.660039 18.503385 2.756561 2.171365 7.882738 -35.994913 -8.895838 -4.903080 -0.383529 7.904902 -19.192502 -2.856695 0.000015 -0.000002 0.000012 -0.000001 0.000002 -0.000002 -1.085525 -1.215526 4.525193 0.142103 -1.115667 16.942467 0.000002 -0.000001 0.000002 -0.000000 -0.000000 -0.000000 -0.663665 -2.903960 12.731465 -0.660571 1.813253 30.578702 -0.000005 0.000002 -0.000001 -0.000001 -0.000000 -0.000000 2.423595 -7.404627 21.763158 -0.989744 3.764115 37.430864 -0.000001 0.000000 -0.000000 0.000001 -0.000002 -0.000000 3.481002 -10.055149 24.322621 -1.458359 7.871816 41.091661 0.000000 0.000002 -0.000003 -0.000000 0.000003 0.000001 -96.613531 -10.605648 24.825999 123.646532 -7.752501 -1.576234 22.640868 -2.576461 -18.741013 -2.429315 -0.924717 0.294323 -0.000001 0.000000 0.000000 -86.548824 -13.581541 -22.578227 131.540933 1.362557 -3.299289 37.269873 3.207040 15.873701 2.472017 -0.476558 -0.237282 -0.000002 0.000001 -0.000000 
-1.514961 247.352203 23.776024 -14.720741 -29.513288 5.636866 13.317295 -0.544759 -3.884857 26.607019 -1.820829 -5.867078 26.607000 -1.820824 -5.867080 1.906618 4.479026 -6.496343 2.528149 6.277205 2.538082 -0.000001 0.000000 0.000001 -2.907525 -3.152761 -0.254988 -25.590017 11.160584 7.872107 -11.805869 -20.514253 -10.639527 -8.967964 -9.945421 32.469459 9.156517 4.802308 -5.500401 -0.322549 0.060554 0.787924 0.000004 -0.000005 0.000002 0.000001 -0.000002 0.000002 -0.901925 -6.981005 -3.808476 0.033477 0.804213 -16.419126 -0.000000 0.000003 -0.000000 0.000000 0.000003 -0.000000 1.947820 9.683029 -14.539965 -0.456491 -1.565391 -21.881279 0.000000 -0.000000 -0.000001 -0.000000 -0.000006 0.000000 2.605814 14.896841 -31.345476 -0.576904 -2.712294 -32.011823 0.000003 -0.000003 0.000001 0.000002 -0.000002 -0.000000 4.170534 18.495065 -34.987589 -0.706822 -5.788523 -39.373227 0.000004 -0.000003 -0.000001 -0.000000 -0.000001 -0.000001 -5.368055 -10.076464 -3.610248 -23.472666 -13.146050 4.415156 -4.555658 13.157622 2.371471 1.139484 7.875702 -33.446958 -8.895845 -4.903108 -0.383551 7.904885 -19.192456 -2.856691 0.000011 -0.000000 0.000015 -0.000001 0.000004 0.000001 -1.085535 -1.215511 4.525221 0.142094 -1.115643 16.942503 0.000001 0.000003 -0.000000 0.000002 -0.000000 0.000000 -0.663673 -2.903938 12.731497 -0.660588 1.813284 30.578743 -0.000002 0.000006 -0.000002 -0.000000 0.000001 -0.000001 2.423591 -7.404622 21.763182 -0.989735 3.764145 37.430926 0.000000 -0.000001 0.000002 0.000000 0.000002 -0.000002 3.480997 -10.055123 24.322635 -1.458348 7.871819 41.091736 0.000000 -0.000001 -0.000000 0.000001 0.000001 -0.000001 -105.243940 -8.505412 24.468400 124.902167 -5.011106 0.370370 26.790669 -2.940356 -17.624914 -3.267379 -0.411315 0.700254 -0.000002 0.000000 0.000001 -84.175982 -3.718049 -31.367791 131.108555 10.452093 3.171057 39.270511 2.499451 8.225187 2.022299 -1.257282 0.893672 -0.000000 0.000002 -0.000001 
-1.311344 244.953125 28.431892 -13.117305 -27.600796 6.097160 12.593190 -0.691922 -3.685849 25.166436 -1.777672 -5.403660 25.166440 -1.777673 -5.403667 3.221732 4.365726 -6.528865 1.953090 5.877466 3.252223 0.000004 -0.000000 0.000001 -2.358856 -5.861554 1.340754 -23.297425 14.633405 9.854123 -12.439275 -23.286239 -11.541681 -12.542689 -5.765428 32.004030 9.162424 4.812108 -5.499270 -0.332696 0.038305 0.784507 0.000004 -0.000001 0.000001 -0.000001 -0.000001 -0.000001 -0.901925 -6.981000 -3.808482 0.033470 0.804209 -16.419119 -0.000000 -0.000000 -0.000000 0.000000 0.000001 -0.000000 1.947817 9.683016 -14.539963 -0.456499 -1.565404 -21.881285 0.000002 0.000000 0.000000 0.000001 0.000000 -0.000000 2.605801 14.896827 -31.345463 -0.576908 -2.712315 -32.011836 0.000003 -0.000007 -0.000002 -0.000000 -0.000004 -0.000000 4.170524 18.495054 -34.987583 -0.706827 -5.788549 -39.373230 0.000001 -0.000004 0.000002 0.000002 0.000001 0.000002 -5.288331 -7.248858 -5.501219 -22.502173 -15.909720 3.822843 -3.972757 10.603250 2.086992 -0.083987 6.408426 -30.419275 -8.895858 -4.903098 -0.383567 7.904887 -19.192480 -2.856707 0.000009 0.000001 0.000014 -0.000000 0.000004 0.000002 -1.085532 -1.215498 4.525208 0.142112 -1.115648 16.942516 -0.000001 0.000001 0.000000 -0.000003 -0.000001 -0.000002 -0.663655 -2.903941 12.731502 -0.660577 1.813298 30.578781 -0.000008 0.000002 -0.000001 0.000000 0.000000 0.000000 2.423605 -7.404608 21.763189 -0.989715 3.764126 37.430967 -0.000001 0.000002 -0.000003 0.000000 -0.000002 -0.000001 3.481018 -10.055133 24.322657 -1.458348 7.871843 41.091753 0.000003 0.000000 -0.000001 -0.000000 -0.000001 0.000003 -102.988092 -5.263191 26.604552 122.739647 -4.148096 -0.297863 23.198039 -2.239152 -12.824602 -3.505505 1.310917 0.771329 0.000000 0.000000 0.000001 -83.592698 -4.697762 -28.443276 128.954586 9.061457 2.930220 38.046715 1.881353 8.935117 2.005640 -0.108986 0.591647 -0.000000 0.000000 0.000002 
